<svg id="Layer_1" data-name="Layer 1" xmlns="http://www.w3.org/2000/svg" xmlns:xlink="http://www.w3.org/1999/xlink" viewBox="0 0 250 250"><defs><style>.cls-1{fill:#e2e2e8;}.cls-2{fill:url(#linear-gradient);}</style><linearGradient id="linear-gradient" x1="90.96" y1="177.11" x2="240" y2="177.11" gradientUnits="userSpaceOnUse"><stop offset="0" stop-color="#ff8338"/><stop offset="1" stop-color="#ff4238"/></linearGradient></defs><title>logo-icon</title><path class="cls-1" d="M188.22,102.49a52.28,52.28,0,0,0-9.35.85,65.37,65.37,0,0,0-130.16,1.1A51.78,51.78,0,0,0,62.78,206.05a52.32,52.32,0,0,0,6.79-.45H181.43a52.32,52.32,0,0,0,6.79.45,51.78,51.78,0,0,0,0-103.56Z"/><path class="cls-2" d="M133.87,190.81C121.12,197.13,105.24,202,91,205.6h90.47a52.32,52.32,0,0,0,6.79.45A51.78,51.78,0,0,0,240,154.33C198.47,132.71,168.59,173.58,133.87,190.81Z"/></svg>